<?xml version="1.0" encoding="utf-8"?>
<!-- Generator: Adobe Illustrator 17.1.0, SVG Export Plug-In . SVG Version: 6.00 Build 0)  -->
<!DOCTYPE svg PUBLIC "-//W3C//DTD SVG 1.1//EN" "http://www.w3.org/Graphics/SVG/1.1/DTD/svg11.dtd">
<svg version="1.1"
	 id="svg3515" sodipodi:docname="New document 3" inkscape:version="0.48.1 " xmlns:dc="http://purl.org/dc/elements/1.1/" xmlns:inkscape="http://www.inkscape.org/namespaces/inkscape" xmlns:sodipodi="http://sodipodi.sourceforge.net/DTD/sodipodi-0.dtd" xmlns:rdf="http://www.w3.org/1999/02/22-rdf-syntax-ns#" xmlns:svg="http://www.w3.org/2000/svg" xmlns:cc="http://creativecommons.org/ns#"
	 xmlns="http://www.w3.org/2000/svg" xmlns:xlink="http://www.w3.org/1999/xlink" x="0px" y="0px" viewBox="389.5 0 220 442.1"
	 enable-background="new 389.5 0 220 442.1" xml:space="preserve">
<g id="g3219" transform="translate(1340.8503,-234.34036)">
	
		<path id="path2995-4-8-8" inkscape:connector-curvature="0" sodipodi:nodetypes="cacaaasccssccscsaaassccsccccaassasssssacssccscccc" inkscape:export-filename="C:\Users\Dovile\Desktop\doodles\racer\green.png" inkscape:export-xdpi="90" inkscape:export-ydpi="90" fill="#20C620" d="
		M-902.8,250.5c5.5-4.3,11.9-7.5,18.4-9.9c8.4-3.1,17.2-4.7,26.1-5.5c12.8-1.2,25.9-1,38.6,1c10.1,1.6,20.1,4.5,29.3,8.8
		c7.7,3.6,14.8,8.4,21.3,13.9c4.5,3.8,8.6,8.2,11.8,13.1c3.2,4.8,5.6,10.3,7.3,15.8c2.3,7.2,2.8,14.9,4,22.3
		c1.5,9.6,0.8,32.8-0.7,42.6c-0.5,3.6-1.2,16.8-1.6,29.4l-0.6,23l3.2,1c3.8,1.6,7.1,4.6,9.8,7.4c4.5,4.8,5.8,9.9,2.9,11
		c-2.1,0.8-14.7-5.8-15.6-8.2c-0.6-1.7-2.3,48.1-2,59.4c0.3,10.2,1.4,16.7,2,25c0.8,10.8,2,21.2,2.6,31.6c0.4,4.2,1.2,10.6,1.4,12.5
		c2.6,23.3,3,30.9,2.7,50.5c-0.3,17.7-1.5,24.5-2.9,28.5c-1.9,5.5-6.6,18.3-12.9,26.5c-3.7,4.8-8.6,8.7-13.7,12
		c-3.2,2.1-6.8,3.4-10.4,4.7c-10.7,3.7-24.7,7.2-32.8,8.2c-10.1,1.2-24.5,1.5-26,1.5l-7.4-0.1c-1.6,0.1-7.8-0.7-11.9-1.1
		c-2.7,0-6.9-0.5-9.2-1c-2.3-0.5-7.3-1.5-11.2-2.2c-3.5-0.3-31.6-9.5-36.8-14.6c-3.4-2.2-7.9-5.8-9.2-9.8
		c-8.2-10.8-12.9-24-14.8-37.4c-1.6-10.8,0.9-49.2,3.1-73.7c1-11.4,4.1-22.6,4.6-34c0.9-21.6,0.7-35,0.6-52.5
		c0-6.5-0.2-12.7-0.5-19.5c-0.3-6.9-0.6-12.6-0.8-12.7c-0.1-0.1-3.4,1.3-7.2,3.1c-9.1,4.5-11,4.4-10.2-0.1c1-5.6,10.3-14,15.4-13.9
		c2.2,0,1.3-8,1.5-12.1c0.2-3.8-0.1-11.4-0.1-11.4c-0.6-13.9-1.8-26.4-3.3-36c-2.2-13.6-0.4-40.7,3.5-52.5c1.7-5.1,5-12,8.4-17.6
		C-919.4,266.1-911.5,256.5-902.8,250.5L-902.8,250.5z"/>
	
		<path id="path3029-9" inkscape:connector-curvature="0" inkscape:export-filename="C:\Users\Dovile\Desktop\doodles\racer\green.png" inkscape:export-xdpi="90" inkscape:export-ydpi="90" fill="#00FF00" stroke="#128912" stroke-width="0.6031" d="
		M-758.2,402.6c-1.9-1.1-4.7-5.8-8.6-14.5c-2.1-4.7-4.6-9.4-5.5-10.6c-1.4-1.9-2.9-7.7-11.4-45.6c-5.4-23.9-9.7-43.6-9.6-43.7
		c0.7-0.8,25,6.7,32.5,10.1l3.7,1.7l0.7,5.4c1.5,11.4,2.1,30.7,1.8,62.9c-0.2,17.7-0.5,32.9-0.7,33.6
		C-755.8,403.3-756.5,403.5-758.2,402.6L-758.2,402.6z"/>
	
		<path id="path3031-6" inkscape:connector-curvature="0" inkscape:export-filename="C:\Users\Dovile\Desktop\doodles\racer\green.png" inkscape:export-xdpi="90" inkscape:export-ydpi="90" fill="#2AFF2A" stroke="#128912" stroke-width="0.6031" d="
		M-927.1,402.2c-0.6-3-1.9-49.5-1.9-68.3c0-19.3,0.6-25.2,2.7-29.9c0.6-1.3,1.7-2.8,2.4-3.2c0.7-0.4,6.1-2.4,12.1-4.3
		c6-2,13-4.6,15.7-6c4.5-2.2,4.8-2.3,4.6-1.1c-0.2,0.7-3.9,18.9-8.3,40.5c-7.1,34.9-8.2,39.5-9.7,41.7c-2.7,3.9-5.6,10.2-8.4,17.7
		c-3.3,9.1-4.3,10.9-6.8,12.8l-2.1,1.6L-927.1,402.2L-927.1,402.2z"/>
	
		<path id="path3033-4" inkscape:connector-curvature="0" inkscape:export-filename="C:\Users\Dovile\Desktop\doodles\racer\green.png" inkscape:export-xdpi="90" inkscape:export-ydpi="90" fill="#2AFF2A" stroke="#128912" stroke-width="0.6031" d="
		M-777.9,257.1c-7.3-4.2-14.7-6.2-20-5.4c-3.3,0.5-4.7,1.7-4.7,4.2v1.9l-5.9-1.4c-9.2-2.1-18-2.9-33.6-2.9c-15.3,0-21.3,0.5-32.5,3
		c-3.6,0.8-6.7,1.5-6.8,1.5c-0.1,0-0.2-0.5-0.2-1.1c0-2.2-1.4-5-2.6-5.5c-2.2-0.8-11.8,0.5-15.7,2.1c-2,0.8-3.7,1.4-3.8,1.3
		c-0.5-0.5,9.8-7.5,14-9.5c16.1-7.6,45.2-10.9,65.3-7.4c17.9,3.1,43.1,13.1,49.4,19.7C-773,259.6-773.8,259.5-777.9,257.1
		L-777.9,257.1z"/>
	
		<path id="path3035-0" inkscape:connector-curvature="0" inkscape:export-filename="C:\Users\Dovile\Desktop\doodles\racer\green.png" inkscape:export-xdpi="90" inkscape:export-ydpi="90" fill="#2AFF2A" stroke="#128912" stroke-width="0.6031" d="
		M-889.2,288.4c0.4-2.1,1-4.3,1.4-4.7c0.4-0.4,1.4-4.5,2.2-9c0.8-4.5,1.8-8.9,2.3-9.8c1-2.3,3.2-3.2,11.3-4.9
		c10.7-2.2,26.9-3.1,43-2.2c13.4,0.7,17.8,1.3,23.5,2.9l3.3,1l1,4.6c4.1,19,5.3,25,5.1,25.2c-0.1,0.1-1.7-0.3-3.5-0.9
		c-22.1-7.6-60.2-7.4-85.6,0.5c-2.2,0.7-4.1,1.2-4.3,1.2C-889.8,292.3-889.6,290.5-889.2,288.4L-889.2,288.4z"/>
	
		<path id="path3037-8" inkscape:connector-curvature="0" inkscape:export-filename="C:\Users\Dovile\Desktop\doodles\racer\green.png" inkscape:export-xdpi="90" inkscape:export-ydpi="90" fill="#2AFF2A" stroke="#128912" stroke-width="0.6031" d="
		M-783.7,367c-8.4-8.5-21.3-18.4-36.5-28c-10-6.3-11.3-6.9-17.5-7.3c-6-0.5-10.3,0.7-20.5,5.6c-12,5.8-24.6,13.4-39.4,23.9
		c-3.3,2.3-6,4.1-6.2,4c-0.3-0.3,9-45.9,9.5-46.8c0.6-0.9,8.4-3.4,15.4-5c21.5-4.7,53-3.4,85.8,3.7l2.8,0.6l0.9,4
		c3.9,17.2,10.2,48.2,9.9,49C-779.3,371-781.3,369.4-783.7,367L-783.7,367L-783.7,367z"/>
	
		<path id="path3039-5" inkscape:connector-curvature="0" inkscape:export-filename="C:\Users\Dovile\Desktop\doodles\racer\green.png" inkscape:export-xdpi="90" inkscape:export-ydpi="90" fill="#2AFF2A" stroke="#128912" stroke-width="0.6031" d="
		M-795.1,311.8c-5.4-1.5-16.7-3.8-24.4-4.9c-6.1-0.9-11.4-1.1-27.1-1.1c-20.8,0-27.2,0.6-40.9,3.9c-2.8,0.7-5.2,1.1-5.3,1
		s0-0.8,0.2-1.5c0.6-2.4,14.2-5.9,30.2-7.7c11.4-1.3,37.4-0.9,48.7,0.9c11.7,1.8,20.6,4.3,21.6,6c0.6,1,1.1,4.4,0.6,4.3
		C-791.9,312.7-793.4,312.3-795.1,311.8L-795.1,311.8L-795.1,311.8z"/>
	
		<path id="path3041-7" inkscape:connector-curvature="0" inkscape:export-filename="C:\Users\Dovile\Desktop\doodles\racer\green.png" inkscape:export-xdpi="90" inkscape:export-ydpi="90" fill="#2AFF2A" stroke="#128912" stroke-width="0.6031" d="
		M-891.3,300.6c0.3-1.1,0.6-2,0.6-2.1c0-0.2,6.6-2.1,12.7-3.6c22.3-5.6,44.5-6.5,63.9-2.6c7.5,1.5,18.5,4.7,19.2,5.6
		c0.3,0.4,0.7,1.5,1,2.6l0.4,1.9l-5.6-1.7c-23.1-6.9-58.2-6.7-86.6,0.5C-892,302.9-891.9,302.9-891.3,300.6L-891.3,300.6z"/>
	
		<path id="path3043-8" inkscape:connector-curvature="0" inkscape:export-filename="C:\Users\Dovile\Desktop\doodles\racer\green.png" inkscape:export-xdpi="90" inkscape:export-ydpi="90" fill="#00FF00" stroke="#128912" stroke-width="0.6031" d="
		M-797.2,667.1c0-1.7,3.6-29.4,3.9-29.8c1.2-1.9,8.8-60.4,10.6-80.9c0.5-5.6,1.1-8.6,3.3-15.2c3-9.1,5-20.2,5.6-30.9
		c0.3-5.5,0.6-7,1.7-8.7c0.8-1.2,3-6.4,5-11.6l3.6-9.4l-0.1-21.6c0-11.9-0.2-28-0.5-35.8c-0.2-9-0.2-14.6,0.2-15.2
		c0.8-1.5,9-1.6,9.6-0.1c0.4,1.2,0,21.8-0.9,37.3c-1.3,23.6-0.7,43.2,2.4,77.5c3.4,38.4,3.7,58.9,1.2,81.7
		c-2.1,19-4.9,29.6-10.6,40.9c-2.9,5.6-12,13.8-19.8,17.8c-2.4,1.2-13.6,5-14.8,5C-796.9,668-797.2,667.6-797.2,667.1L-797.2,667.1z
		 M-786.6,636.8c2.1-4.8,8.5-26.9,13.8-47.5c6.9-27.2,11.3-41.6,12.7-41.8c2.4-0.5,2.7,1.2,2.7,16c0,8.7,0.3,15.2,0.7,17.2l0.7,3.2
		l0.4-3.2c0.2-1.7,0.7-12.1,1.1-23.1c0.8-21.9,0.2-42.3-1.6-50.5c-1.6-7.3-2.4-6-4.5,7.1c-2.6,16.6-21.1,97.4-22.7,98.8
		c-0.4,0.4-0.2-1.4,1.2-12.3c1.3-9.8,3.8-32.5,4.2-38c0.3-4.5,0.3-4.7-0.5-2.9c-1.8,3.8-11.8,71-11.8,79.1
		C-790,641.5-788.2,640.4-786.6,636.8L-786.6,636.8L-786.6,636.8z"/>
	
		<path id="path3045-07" inkscape:connector-curvature="0" inkscape:export-filename="C:\Users\Dovile\Desktop\doodles\racer\green.png" inkscape:export-xdpi="90" inkscape:export-ydpi="90" fill="#2AFF2A" stroke="#128912" stroke-width="0.6031" d="
		M-890.4,665.6c-10.6-3.3-17-6.5-24.5-12.2c-4.2-3.2-4.8-3.9-6.9-8.5c-8.4-18.5-9.7-25.3-10.3-55.9c-0.4-19.7,0.2-35.1,2.5-62.7
		c0.8-9.8,1.6-19,1.7-20.5c0.1-1.5,0.2,9.1,0.2,23.5c0,23.2,0.1,27.3,1.3,35.8c0.7,5.2,1.4,9.7,1.5,9.8c0.1,0.1,0.5-5.1,0.7-11.7
		c0.4-11.7,1-17.3,1.8-18.1c0.2-0.2,0.9,0,1.4,0.6c0.7,0.7,2,6.6,4.2,18.7c5,27.4,7.1,35.7,13.5,55.7c4,12.4,8.5,21.4,10.7,21.4
		c1,0,1-0.6-0.4-7.4c-0.7-3.2-2.2-13.8-3.3-23.6c-2.4-20.5-4.4-32.4-7-42.9c-3.7-14.9-3.8-7-0.2,19.4c1.2,8.6,2.7,19.3,3.4,23.7
		s1.2,8.4,1.1,9c-0.1,0.5-2.2-6.1-4.6-14.6c-3.8-13.4-4.9-18.4-7.7-35.5c-4.6-27.7-11.8-72.1-11.8-72.4c0-0.1-0.5-0.3-1.2-0.3
		c-1.3,0-1.8,0.7-2.5,3.3c-0.3,1-0.3-1.7-0.1-6c0.6-10.7,0.3-44.4-0.5-62.7c-0.4-8.3-0.5-16.7-0.3-18.7l0.4-3.6l3.6-1.1
		c2-0.6,3.8-0.9,4-0.7s0.3,9.4,0.1,20.4c-0.4,25.5-0.2,39.2,0.6,45.4c0.8,6.1,3.8,18.4,5.3,22c1,2.4,3.4,12.7,6.4,28.2
		c0.5,2.8,2.3,9.3,4,14.5c2.5,8,3.1,10.6,3.6,17.2c0.3,4.3,0.7,8,0.9,8.2c0.1,0.2,0.7,5.3,1.2,11.2c1.3,15,1.3,15.2,4.6,36.4
		c4.5,29.4,7.1,44.8,8.4,50.7c0.7,3,1.2,5.5,1.2,5.7C-883.5,667.6-884.9,667.3-890.4,665.6L-890.4,665.6L-890.4,665.6z"/>
	
		<path id="path3047-7" inkscape:connector-curvature="0" inkscape:export-filename="C:\Users\Dovile\Desktop\doodles\racer\green.png" inkscape:export-xdpi="90" inkscape:export-ydpi="90" fill="#00FF00" stroke="#128912" stroke-width="0.6031" d="
		M-793,541.9c-6.4-0.7-83.6-2-92.1-1.5c-4.3,0.2-8.8,0.5-10.1,0.5l-2.4,0.1l-1.4-5.4c-2.4-9.2-4.3-19.1-5.4-27.2
		c-0.8-6.4-1-13.6-0.9-42.1c0.1-31.9,0.3-36.5,1.6-35.1c0.2,0.2,0.6,8.1,0.9,17.4c0.7,24.4,1.9,45.3,3.6,60.8
		c1.3,11.8,4.1,22.8,3.3,13c-0.2-2.3-0.9-11.5-1.6-20.5c-1.1-13.4-1.3-21.4-1.3-44.9l0-28.6l3.3-0.4c5.4-0.7,69.8-1.2,91.7-0.6
		l20.2,0.5l0.9,1.8c1.1,2.2,1.1,4.4,0.1,28c-1,24.3-1.7,35.6-3.1,54c-0.7,8.6-1.2,16.3-1.1,17.2c0.3,2.4,1.6-3.7,3.2-15.7
		c2.5-18.4,3.6-33.5,4.5-59.5c0.4-10.5,0.9-19.5,1.2-20.1c0.3-0.6,0.4,4.6,0.3,13.2c-0.2,7.8-0.4,23.6-0.6,35
		c-0.5,31.6-2.4,48.8-6.5,58.6C-785.8,542.8-785.7,542.8-793,541.9L-793,541.9L-793,541.9z"/>
	
		<path id="path3049-2" inkscape:connector-curvature="0" inkscape:export-filename="C:\Users\Dovile\Desktop\doodles\racer\green.png" inkscape:export-xdpi="90" inkscape:export-ydpi="90" fill="#00FF00" stroke="#128912" stroke-width="0.6031" d="
		M-853.1,672.8c-8.5-0.5-20.5-2.3-25.6-3.8c-2.7-0.8-2.7-0.8-3.8-5c-1.7-6.9-2.4-11.7-2-13.3c0.4-1.5,0.5-1.6,3.2-1.2
		c9.1,1.4,12.7,1.6,26.4,2.1c16.5,0.5,38.2,0,44.2-1.1c2.1-0.4,5.7-1.3,8-2.1l4.2-1.4v4c0,3.7-0.7,11.4-1.5,16.1
		c-0.3,1.9-0.4,1.9-5.6,2.9C-820.4,672.8-836.9,673.8-853.1,672.8L-853.1,672.8L-853.1,672.8z"/>
	
		<path id="path3051-6" inkscape:connector-curvature="0" inkscape:export-filename="C:\Users\Dovile\Desktop\doodles\racer\green.png" inkscape:export-xdpi="90" inkscape:export-ydpi="90" fill="#008000" stroke="#128912" stroke-width="0.6031" d="
		M-930.4,634.1c-1.8-2.2-5.1-10.1-6.2-14.5c-1.9-7.9-2.6-20.2-2.2-36.3c0.6-23.7,3-52.7,4.9-60.1c2.5-9.8,3.5-34.9,3.1-75.3
		c-0.2-19.4-0.2-33.1,0.2-32.6c0.3,0.5,0.6,19.6,0.7,42.5l0.1,41.6l-1.9,21.4c-3.1,35.3-3.3,41.3-3,63.6c0.4,23.8,1.5,36,4,44.5
		C-929,634.4-928.9,635.8-930.4,634.1L-930.4,634.1z"/>
	
		<path id="path3053-9" inkscape:connector-curvature="0" inkscape:export-filename="C:\Users\Dovile\Desktop\doodles\racer\green.png" inkscape:export-xdpi="90" inkscape:export-ydpi="90" fill="#008000" stroke="#128912" stroke-width="0.6031" d="
		M-753.8,634.8c0-0.3,0.8-4.2,1.8-8.6c2.5-11.1,3.4-17.9,4.6-33.9c1.4-18.9,0.5-37.4-3.7-79.4l-2.2-21.4l0.5-32.3
		c0.2-17.7,0.6-35.1,0.8-38.6c0.2-3.5,0.4,10.5,0.4,31.1c0,26.1,0.2,39.7,0.8,44.9c0.4,4.1,1.4,14.5,2.3,22.9
		c0.8,8.5,1.9,19.3,2.5,24.1c0.5,4.8,1.2,11.1,1.5,13.9c0.8,7.3,0.7,39.7-0.1,50.1c-0.7,9.6-1.8,13.5-6,22.5
		C-752.9,635-753.8,636.3-753.8,634.8L-753.8,634.8z"/>
	
		<path id="path3055-77" inkscape:connector-curvature="0" inkscape:export-filename="C:\Users\Dovile\Desktop\doodles\racer\green.png" inkscape:export-xdpi="90" inkscape:export-ydpi="90" fill="#008000" stroke="#128912" stroke-width="0.6031" d="
		M-738.4,420.2c-1.3-0.6-4-2.6-5.9-4.4c-2.7-2.6-3.5-3.7-3.3-4.8c0.5-3.3,6.1-1.2,10.7,4.1c2.5,2.8,2.8,3.6,2.1,5.3
		C-735.3,421.6-735.5,421.5-738.4,420.2L-738.4,420.2z"/>
	
		<path id="path3057-77" inkscape:connector-curvature="0" inkscape:export-filename="C:\Users\Dovile\Desktop\doodles\racer\green.png" inkscape:export-xdpi="90" inkscape:export-ydpi="90" fill="#008000" stroke="#128912" stroke-width="0.6031" d="
		M-752,391.7c0-5.8,0.3-22.3,0.6-36.8c0.6-27,0.3-36.5-1.6-48.2c-1.3-8.4-2.4-12.1-5.6-19.2c-3.1-6.9-6.4-16.2-5.9-16.7
		c0.5-0.5,6.4,8.3,8.5,12.8c2.2,4.6,5.1,14.5,6.7,22.6c1.5,8,1.8,23.1,0.7,37.1c-0.5,6.6-1.3,22.4-1.6,35
		c-0.4,12.7-0.9,23.2-1.2,23.5C-751.8,402-752,398.4-752,391.7L-752,391.7L-752,391.7z"/>
	
		<path id="path3059-9" inkscape:connector-curvature="0" inkscape:export-filename="C:\Users\Dovile\Desktop\doodles\racer\green.png" inkscape:export-xdpi="90" inkscape:export-ydpi="90" fill="#008000" stroke="#128912" stroke-width="0.6031" d="
		M-931.3,395.1c-0.3-4-0.8-11.8-1.1-17.4c-0.3-5.6-1.2-14.7-1.8-20.2s-1.4-16-1.6-23.3c-0.4-17,0.6-26.2,4.1-36.8
		c2.4-7.2,9.4-22.4,10-21.8c0.2,0.2-1.7,6.6-4.3,14.2c-6.3,19-6.6,21-6.2,46.8c0.2,11.3,0.6,25.3,1,31.1s0.6,16,0.5,22.6l-0.2,12.1
		L-931.3,395.1L-931.3,395.1z"/>
	
		<path id="path3061-0" inkscape:connector-curvature="0" inkscape:export-filename="C:\Users\Dovile\Desktop\doodles\racer\green.png" inkscape:export-xdpi="90" inkscape:export-ydpi="90" fill="#008000" stroke="#128912" stroke-width="0.6031" d="
		M-947.9,419.6c-1.1-2.1,2.5-6.2,7.7-8.8c4.5-2.3,7.4,0.4,4,3.6c-1.8,1.7-6.8,4.7-9.4,5.7C-947.1,420.6-947.5,420.5-947.9,419.6
		L-947.9,419.6z"/>
	
		<path id="path3063-0" inkscape:connector-curvature="0" inkscape:export-filename="C:\Users\Dovile\Desktop\doodles\racer\green.png" inkscape:export-xdpi="90" inkscape:export-ydpi="90" fill="#008000" stroke="#128912" stroke-width="0.6031" d="
		M-851.5,642.3c-13.7-1.2-24.9-3.4-26.4-5.2c-0.4-0.4-1.3-2.9-2.2-5.6c-3.1-9.9-5.2-20.8-6.7-35.2c-1.3-12.9-3.6-49.4-3.1-50
		c0.6-0.6,93-0.6,95,0l1.5,0.4l-0.7,15.6c-1.4,29.6-5.7,65.4-9,74.2c-1.1,3-2.9,4-8.7,5C-815.5,642.1-846,642.8-851.5,642.3
		L-851.5,642.3L-851.5,642.3z"/>
	
		<path id="path3065-0" inkscape:connector-curvature="0" inkscape:export-filename="C:\Users\Dovile\Desktop\doodles\racer\green.png" inkscape:export-xdpi="90" inkscape:export-ydpi="90" fill="#333333" stroke="#128912" stroke-width="0.6031" d="
		M-901.5,418.9c-4.8-0.8-8.2-6.4-10.1-16.6c-1-5.4-0.7-9.1,1-14.3c2.8-8.3,9-15.9,18.4-22.4c5.3-3.7,41.3-25.1,44.9-26.6
		c1.9-0.8,4.1-1.2,7.3-1.2c4.1,0,5.1,0.2,9.2,2.3c10.7,5.4,32,22.4,48.5,38.6c6.5,6.4,7.5,7.7,8.3,10.3c1.2,4.2,2.4,15.3,2,18.9
		c-0.4,4.5-2.7,8.6-5.6,10c-2.3,1.2-3.7,1.2-61.8,1.3C-872.1,419.3-900,419.2-901.5,418.9L-901.5,418.9L-901.5,418.9z"/>
	
		<path id="path3067-5" inkscape:connector-curvature="0" inkscape:export-filename="C:\Users\Dovile\Desktop\doodles\racer\green.png" inkscape:export-xdpi="90" inkscape:export-ydpi="90" fill="#333333" stroke="#128912" stroke-width="0.6031" d="
		M-913.3,481.6l-2.4-6.9l0.2-28.5c0.1-15.6,0.4-29.3,0.6-30.4l0.4-1.9l2.4,3.5l2.4,3.5l-0.1,20.5c-0.1,11.3-0.3,26.5-0.6,33.8
		l-0.5,13.3L-913.3,481.6L-913.3,481.6z"/>
	
		<path id="path3069-75" inkscape:connector-curvature="0" inkscape:export-filename="C:\Users\Dovile\Desktop\doodles\racer\green.png" inkscape:export-xdpi="90" inkscape:export-ydpi="90" fill="#333333" stroke="#128912" stroke-width="0.6031" d="
		M-773.1,458.8c0-30.3,0.1-34.8,0.9-35.7c0.5-0.6,1.7-2.8,2.6-5.1l1.7-4l0.4,31.1l0.4,31.1l-2.5,7.7c-1.4,4.3-2.8,8.1-3.1,8.6
		C-772.8,493-773.1,478.4-773.1,458.8L-773.1,458.8z"/>
	
		<path id="path3071-6" inkscape:connector-curvature="0" inkscape:export-filename="C:\Users\Dovile\Desktop\doodles\racer\green.png" inkscape:export-xdpi="90" inkscape:export-ydpi="90" fill="#999999" stroke="#128912" stroke-width="0.6031" d="
		M-764,294.1c-1.8-1.2-7.4-3-16.3-5.4c-9.8-2.6-12.3-3.6-13.2-5.4c-1.4-2.6-5.2-25.8-4.5-27.8c0.5-1.6,2.8-1.4,7.9,0.6
		c10.5,4.2,17.4,9.6,21.5,17.1c2.1,3.8,5.8,13.7,6.6,17.8C-761.6,293.1-762.7,294.9-764,294.1L-764,294.1L-764,294.1z"/>
	
		<path id="path3073-8" inkscape:connector-curvature="0" inkscape:export-filename="C:\Users\Dovile\Desktop\doodles\racer\green.png" inkscape:export-xdpi="90" inkscape:export-ydpi="90" fill="#999999" stroke="#128912" stroke-width="0.6031" d="
		M-921.7,294.9c-1.3-3.4,0.8-12.9,4.5-20.7c4.6-9.4,14.4-17.4,23.8-19.4c2.8-0.6,3.6-0.5,4.8,0.2c1.9,1.2,2.1,2.6,1.1,10
		c-1.7,13.8-3.3,17.9-8.2,20.7c-2.3,1.3-24.1,10-25.2,10C-921.1,295.9-921.5,295.4-921.7,294.9L-921.7,294.9z"/>
</g>
</svg>
