<?xml version="1.0" encoding="utf-8"?>
<!-- Generator: Adobe Illustrator 17.1.0, SVG Export Plug-In . SVG Version: 6.00 Build 0)  -->
<!DOCTYPE svg PUBLIC "-//W3C//DTD SVG 1.1//EN" "http://www.w3.org/Graphics/SVG/1.1/DTD/svg11.dtd">
<svg version="1.1"
	 id="svg3515" inkscape:version="0.48.1 " sodipodi:docname="New document 3" xmlns:inkscape="http://www.inkscape.org/namespaces/inkscape" xmlns:dc="http://purl.org/dc/elements/1.1/" xmlns:cc="http://creativecommons.org/ns#" xmlns:svg="http://www.w3.org/2000/svg" xmlns:sodipodi="http://sodipodi.sourceforge.net/DTD/sodipodi-0.dtd" xmlns:rdf="http://www.w3.org/1999/02/22-rdf-syntax-ns#"
	 xmlns="http://www.w3.org/2000/svg" xmlns:xlink="http://www.w3.org/1999/xlink" x="0px" y="0px"
	 viewBox="128.5 -49.9 354.3 791.9" enable-background="new 128.5 -49.9 354.3 791.9" xml:space="preserve">
<g id="g3271" transform="translate(1.8758905,-286.76903)">
	
		<path id="path2995-4-8" inkscape:export-ydpi="90" inkscape:export-xdpi="90" inkscape:export-filename="C:\Users\Dovile\Desktop\doodles\racer\red.png" sodipodi:nodetypes="cacaaasccssccscsaaassccsccccaassasssssacssccscccc" inkscape:connector-curvature="0" fill="#C1081A" d="
		M205.3,343.2c8.9-6.9,19.1-12.1,29.6-15.9c13.5-5,27.7-7.6,42-8.9c20.6-1.9,41.7-1.6,62.1,1.6c16.3,2.6,32.3,7.2,47.1,14.2
		c12.4,5.8,23.8,13.5,34.3,22.4c7.2,6.1,13.8,13.2,19,21.1c5.1,7.7,9,16.6,11.7,25.4c3.7,11.6,4.5,24,6.4,35.9
		c2.4,15.4,1.3,52.8-1.1,68.5c-0.8,5.8-1.9,27-2.6,47.3l-1,37l5.1,1.6c6.1,2.6,11.4,7.4,15.8,11.9c7.2,7.7,9.3,15.9,4.7,17.7
		c-3.4,1.3-23.7-9.3-25.1-13.2c-1-2.7-3.7,77.4-3.2,95.6c0.5,16.4,2.3,26.9,3.2,40.2c1.3,17.4,3.2,34.1,4.2,50.8
		c0.6,6.8,1.9,17.1,2.3,20.1c4.2,37.5,4.8,49.7,4.3,81.3c-0.5,28.5-2.4,39.4-4.7,45.9c-3.1,8.9-10.6,29.4-20.8,42.6
		c-6,7.7-13.8,14-22,19.3c-5.1,3.4-10.9,5.5-16.7,7.6c-17.2,6-39.7,11.6-52.8,13.2c-16.3,1.9-39.4,2.4-41.8,2.4l-11.9-0.2
		c-2.6,0.2-12.6-1.1-19.1-1.8c-4.3,0-11.1-0.8-14.8-1.6s-11.7-2.4-18-3.5c-5.6-0.5-50.8-15.3-59.2-23.5c-5.5-3.5-12.7-9.3-14.8-15.8
		c-13.2-17.4-20.8-38.6-23.8-60.2c-2.6-17.4,1.4-79.2,5-118.6c1.6-18.3,6.6-36.4,7.4-54.7c1.4-34.8,1.1-56.3,1-84.5
		c0-10.5-0.3-20.4-0.8-31.4c-0.5-11.1-1-20.3-1.3-20.4c-0.2-0.2-5.5,2.1-11.6,5c-14.6,7.2-17.7,7.1-16.4-0.2
		c1.6-9,16.6-22.5,24.8-22.4c3.5,0,2.1-12.9,2.4-19.5c0.3-6.1-0.2-18.3-0.2-18.3c-1-22.4-2.9-42.5-5.3-57.9
		c-3.5-21.9-0.6-65.5,5.6-84.5c2.7-8.2,8-19.3,13.5-28.3C178.6,368.3,191.3,352.8,205.3,343.2L205.3,343.2z"/>
	
		<path id="path3029" inkscape:export-ydpi="90" inkscape:export-xdpi="90" inkscape:export-filename="C:\Users\Dovile\Desktop\doodles\racer\red.png" inkscape:connector-curvature="0" fill="#FF0000" stroke="#9B0D28" stroke-width="0.6031" d="
		M438,587.9c-3.1-1.8-7.6-9.3-13.8-23.3c-3.4-7.6-7.4-15.1-8.9-17.1c-2.3-3.1-4.7-12.4-18.3-73.4c-8.7-38.5-15.6-70.2-15.4-70.3
		c1.1-1.3,40.2,10.8,52.3,16.3l6,2.7l1.1,8.7c2.4,18.3,3.4,49.4,2.9,101.2c-0.3,28.5-0.8,52.9-1.1,54.1
		C441.8,589.2,440.5,589.5,438,587.9L438,587.9z"/>
	
		<path id="path3031" inkscape:export-ydpi="90" inkscape:export-xdpi="90" inkscape:export-filename="C:\Users\Dovile\Desktop\doodles\racer\red.png" inkscape:connector-curvature="0" fill="#FF0000" stroke="#9B0D28" stroke-width="0.6031" d="
		M166.2,587.3c-1-4.8-3.1-79.7-3.1-109.9c0-31.1,1-40.5,4.3-48.1c1-2.1,2.7-4.5,3.9-5.1c1.1-0.6,9.8-3.9,19.5-6.9
		c9.7-3.1,20.9-7.4,25.3-9.7c7.2-3.5,7.7-3.7,7.4-1.8c-0.3,1.1-6.3,30.4-13.4,65.2c-11.4,56.2-13.2,63.6-15.6,67.1
		c-4.3,6.3-9,16.4-13.5,28.5c-5.3,14.6-6.9,17.5-10.9,20.6l-3.4,2.6L166.2,587.3L166.2,587.3z"/>
	
		<path id="path3033" inkscape:export-ydpi="90" inkscape:export-xdpi="90" inkscape:export-filename="C:\Users\Dovile\Desktop\doodles\racer\red.png" inkscape:connector-curvature="0" fill="#FF0000" stroke="#9B0D28" stroke-width="0.6031" d="
		M406.3,353.8c-11.7-6.8-23.7-10-32.2-8.7c-5.3,0.8-7.6,2.7-7.6,6.8v3.1l-9.5-2.3c-14.8-3.4-29-4.7-54.1-4.7
		c-24.6,0-34.3,0.8-52.3,4.8c-5.8,1.3-10.8,2.4-10.9,2.4s-0.3-0.8-0.3-1.8c0-3.5-2.3-8-4.2-8.9c-3.5-1.3-19,0.8-25.3,3.4
		c-3.2,1.3-6,2.3-6.1,2.1c-0.8-0.8,15.8-12.1,22.5-15.3c25.9-12.2,72.7-17.5,105.1-11.9c28.8,5,69.4,21.1,79.5,31.7
		C414.1,357.8,412.9,357.7,406.3,353.8L406.3,353.8L406.3,353.8z"/>
	
		<path id="path3035" inkscape:export-ydpi="90" inkscape:export-xdpi="90" inkscape:export-filename="C:\Users\Dovile\Desktop\doodles\racer\red.png" inkscape:connector-curvature="0" fill="#FF0000" stroke="#9B0D28" stroke-width="0.6031" d="
		M227.2,404.2c0.6-3.4,1.6-6.9,2.3-7.6c0.6-0.6,2.3-7.2,3.5-14.5c1.3-7.2,2.9-14.3,3.7-15.8c1.6-3.7,5.1-5.1,18.2-7.9
		c17.2-3.5,43.3-5,69.2-3.5c21.6,1.1,28.6,2.1,37.8,4.7l5.3,1.6l1.6,7.4c6.6,30.6,8.5,40.2,8.2,40.5c-0.2,0.2-2.7-0.5-5.6-1.4
		c-35.6-12.2-96.9-11.9-137.7,0.8c-3.5,1.1-6.6,1.9-6.9,1.9C226.2,410.4,226.5,407.5,227.2,404.2L227.2,404.2z"/>
	
		<path id="path3037" inkscape:export-ydpi="90" inkscape:export-xdpi="90" inkscape:export-filename="C:\Users\Dovile\Desktop\doodles\racer\red.png" inkscape:connector-curvature="0" fill="#FF0000" stroke="#9B0D28" stroke-width="0.6031" d="
		M396.9,530.6c-13.5-13.7-34.3-29.6-58.7-45.1c-16.1-10.1-18.2-11.1-28.2-11.7c-9.7-0.8-16.6,1.1-33,9
		c-19.3,9.3-39.6,21.6-63.4,38.5c-5.3,3.7-9.7,6.6-10,6.4c-0.5-0.5,14.5-73.9,15.3-75.3c1-1.4,13.5-5.5,24.8-8
		c34.6-7.6,85.3-5.5,138.1,6l4.5,1l1.4,6.4c6.3,27.7,16.4,77.6,15.9,78.8C403.8,537.2,400.6,534.5,396.9,530.6L396.9,530.6
		L396.9,530.6z"/>
	
		<path id="path3039" inkscape:export-ydpi="90" inkscape:export-xdpi="90" inkscape:export-filename="C:\Users\Dovile\Desktop\doodles\racer\red.png" inkscape:connector-curvature="0" fill="#FF0000" stroke="#9B0D28" stroke-width="0.6031" d="
		M378.6,441.8c-8.7-2.4-26.9-6.1-39.3-7.9c-9.8-1.4-18.3-1.8-43.6-1.8c-33.5,0-43.8,1-65.8,6.3c-4.5,1.1-8.4,1.8-8.5,1.6
		c-0.2-0.2,0-1.3,0.3-2.4c1-3.9,22.8-9.5,48.6-12.4c18.3-2.1,60.2-1.4,78.4,1.4c18.8,2.9,33.1,6.9,34.8,9.7c1,1.6,1.8,7.1,1,6.9
		C383.7,443.3,381.2,442.6,378.6,441.8L378.6,441.8L378.6,441.8z"/>
	
		<path id="path3041" inkscape:export-ydpi="90" inkscape:export-xdpi="90" inkscape:export-filename="C:\Users\Dovile\Desktop\doodles\racer\red.png" inkscape:connector-curvature="0" fill="#FF0000" stroke="#9B0D28" stroke-width="0.6031" d="
		M223.8,423.8c0.5-1.8,1-3.2,1-3.4c0-0.3,10.6-3.4,20.4-5.8c35.9-9,71.6-10.5,102.8-4.2c12.1,2.4,29.8,7.6,30.9,9
		c0.5,0.6,1.1,2.4,1.6,4.2l0.6,3.1l-9-2.7c-37.2-11.1-93.6-10.8-139.3,0.8C222.5,427.5,222.7,427.5,223.8,423.8L223.8,423.8z"/>
	
		<path id="path3043" inkscape:export-ydpi="90" inkscape:export-xdpi="90" inkscape:export-filename="C:\Users\Dovile\Desktop\doodles\racer\red.png" inkscape:connector-curvature="0" fill="#FF0000" stroke="#9B0D28" stroke-width="0.6031" d="
		M375.2,1013.5c0-2.7,5.8-47.3,6.3-48c1.9-3.1,14.2-97.2,17.1-130.2c0.8-9,1.8-13.8,5.3-24.5c4.8-14.6,8-32.5,9-49.7
		c0.5-8.9,1-11.3,2.7-14c1.3-1.9,4.8-10.3,8-18.7l5.8-15.1l-0.2-34.8c0-19.1-0.3-45.1-0.8-57.6c-0.3-14.5-0.3-23.5,0.3-24.5
		c1.3-2.4,14.5-2.6,15.4-0.2c0.6,1.9,0,35.1-1.4,60c-2.1,38-1.1,69.5,3.9,124.7c5.5,61.8,6,94.8,1.9,131.5
		c-3.4,30.6-7.9,47.6-17.1,65.8c-4.7,9-19.3,22.2-31.9,28.6c-3.9,1.9-21.9,8-23.8,8C375.5,1015,375.2,1014.3,375.2,1013.5
		L375.2,1013.5z M392.3,964.9c3.4-7.7,13.7-43.3,22.2-76.4c11.1-43.8,18.2-66.9,20.4-67.3c3.9-0.8,4.3,1.9,4.3,25.7
		c0,14,0.5,24.5,1.1,27.7l1.1,5.1l0.6-5.1c0.3-2.7,1.1-19.5,1.8-37.2c1.3-35.2,0.3-68.1-2.6-81.3c-2.6-11.7-3.9-9.7-7.2,11.4
		c-4.2,26.7-34,156.7-36.5,159c-0.6,0.6-0.3-2.3,1.9-19.8c2.1-15.8,6.1-52.3,6.8-61.1c0.5-7.2,0.5-7.6-0.8-4.7
		c-2.9,6.1-19,114.2-19,127.3C386.8,972.3,389.7,970.6,392.3,964.9L392.3,964.9L392.3,964.9z"/>
	
		<path id="path3045" inkscape:export-ydpi="90" inkscape:export-xdpi="90" inkscape:export-filename="C:\Users\Dovile\Desktop\doodles\racer\red.png" inkscape:connector-curvature="0" fill="#FF0000" stroke="#9B0D28" stroke-width="0.6031" d="
		M225.2,1011.3c-17.1-5.3-27.4-10.5-39.4-19.6c-6.8-5.1-7.7-6.3-11.1-13.7c-13.5-29.8-15.6-40.7-16.6-89.9
		c-0.6-31.7,0.3-56.5,4-100.9c1.3-15.8,2.6-30.6,2.7-33c0.2-2.4,0.3,14.6,0.3,37.8c0,37.3,0.2,43.9,2.1,57.6
		c1.1,8.4,2.3,15.6,2.4,15.8c0.2,0.2,0.8-8.2,1.1-18.8c0.6-18.8,1.6-27.8,2.9-29.1c0.3-0.3,1.4,0,2.3,1c1.1,1.1,3.2,10.6,6.8,30.1
		c8,44.1,11.4,57.4,21.7,89.6c6.4,20,13.7,34.4,17.2,34.4c1.6,0,1.6-1-0.6-11.9c-1.1-5.1-3.5-22.2-5.3-38c-3.9-33-7.1-52.1-11.3-69
		c-6-24-6.1-11.3-0.3,31.2c1.9,13.8,4.3,31.1,5.5,38.1s1.9,13.5,1.8,14.5c-0.2,0.8-3.5-9.8-7.4-23.5c-6.1-21.6-7.9-29.6-12.4-57.1
		c-7.4-44.6-19-116-19-116.5c0-0.2-0.8-0.5-1.9-0.5c-2.1,0-2.9,1.1-4,5.3c-0.5,1.6-0.5-2.7-0.2-9.7c1-17.2,0.5-71.4-0.8-100.9
		c-0.6-13.4-0.8-26.9-0.5-30.1l0.6-5.8l5.8-1.8c3.2-1,6.1-1.4,6.4-1.1c0.3,0.3,0.5,15.1,0.2,32.8c-0.6,41-0.3,63.1,1,73.1
		c1.3,9.8,6.1,29.6,8.5,35.4c1.6,3.9,5.5,20.4,10.3,45.4c0.8,4.5,3.7,15,6.4,23.3c4,12.9,5,17.1,5.8,27.7c0.5,6.9,1.1,12.9,1.4,13.2
		c0.2,0.3,1.1,8.5,1.9,18c2.1,24.1,2.1,24.5,7.4,58.6c7.2,47.3,11.4,72.1,13.5,81.6c1.1,4.8,1.9,8.9,1.9,9.2
		C236.3,1014.5,234.1,1014,225.2,1011.3L225.2,1011.3L225.2,1011.3z"/>
	
		<path id="path3047" inkscape:export-ydpi="90" inkscape:export-xdpi="90" inkscape:export-filename="C:\Users\Dovile\Desktop\doodles\racer\red.png" inkscape:connector-curvature="0" fill="#FF0000" stroke="#9B0D28" stroke-width="0.6031" d="
		M382,812.2c-10.3-1.1-134.5-3.2-148.2-2.4c-6.9,0.3-14.2,0.8-16.3,0.8l-3.9,0.2l-2.3-8.7c-3.9-14.8-6.9-30.7-8.7-43.8
		c-1.3-10.3-1.6-21.9-1.4-67.7c0.2-51.3,0.5-58.7,2.6-56.5c0.3,0.3,1,13,1.4,28c1.1,39.3,3.1,72.9,5.8,97.8
		c2.1,19,6.6,36.7,5.3,20.9c-0.3-3.7-1.4-18.5-2.6-33c-1.8-21.6-2.1-34.4-2.1-72.2v-46l5.3-0.6c8.7-1.1,112.3-1.9,147.6-1l32.5,0.8
		l1.4,2.9c1.8,3.5,1.8,7.1,0.2,45.1c-1.6,39.1-2.7,57.3-5,86.9c-1.1,13.8-1.9,26.2-1.8,27.7c0.5,3.9,2.6-6,5.1-25.3
		c4-29.6,5.8-53.9,7.2-95.7c0.6-16.9,1.4-31.4,1.9-32.3c0.5-1,0.6,7.4,0.5,21.2c-0.3,12.6-0.6,38-1,56.3
		c-0.8,50.8-3.9,78.5-10.5,94.3C393.6,813.5,393.7,813.5,382,812.2L382,812.2L382,812.2z"/>
	
		<path id="path3049" inkscape:export-ydpi="90" inkscape:export-xdpi="90" inkscape:export-filename="C:\Users\Dovile\Desktop\doodles\racer\red.png" inkscape:connector-curvature="0" fill="#FF0000" stroke="#9B0D28" stroke-width="0.6031" d="
		M285.3,1022.7c-13.7-0.8-33-3.7-41.2-6.1c-4.3-1.3-4.3-1.3-6.1-8c-2.7-11.1-3.9-18.8-3.2-21.4c0.6-2.4,0.8-2.6,5.1-1.9
		c14.6,2.3,20.4,2.6,42.5,3.4c26.6,0.8,61.5,0,71.1-1.8c3.4-0.6,9.2-2.1,12.9-3.4l6.8-2.3v6.4c0,6-1.1,18.3-2.4,25.9
		c-0.5,3.1-0.6,3.1-9,4.7C337.9,1022.7,311.3,1024.3,285.3,1022.7L285.3,1022.7L285.3,1022.7z"/>
	
		<path id="path3051" inkscape:export-ydpi="90" inkscape:export-xdpi="90" inkscape:export-filename="C:\Users\Dovile\Desktop\doodles\racer\red.png" inkscape:connector-curvature="0" fill="#800000" stroke="#9B0D28" stroke-width="0.6031" d="
		M160.9,960.4c-2.9-3.5-8.2-16.3-10-23.3c-3.1-12.7-4.2-32.5-3.5-58.4c1-38.1,4.8-84.8,7.9-96.7c4-15.8,5.6-56.2,5-121.2
		c-0.3-31.2-0.3-53.3,0.3-52.5c0.5,0.8,1,31.5,1.1,68.4l0.2,66.9l-3.1,34.4c-5,56.8-5.3,66.5-4.8,102.3c0.6,38.3,2.4,57.9,6.4,71.6
		C163.1,961.1,163.3,963.3,160.9,960.4L160.9,960.4z"/>
	
		<path id="path3053" inkscape:export-ydpi="90" inkscape:export-xdpi="90" inkscape:export-filename="C:\Users\Dovile\Desktop\doodles\racer\red.png" inkscape:connector-curvature="0" fill="#800000" stroke="#9B0D28" stroke-width="0.6031" d="
		M445,961.7c0-0.5,1.3-6.8,2.9-13.8c4-17.9,5.5-28.8,7.4-54.5c2.3-30.4,0.8-60.2-6-127.8l-3.5-34.4l0.8-52c0.3-28.5,1-56.5,1.3-62.1
		c0.3-5.6,0.6,16.9,0.6,50c0,42,0.3,63.9,1.3,72.2c0.6,6.6,2.3,23.3,3.7,36.8c1.3,13.7,3.1,31.1,4,38.8c0.8,7.7,1.9,17.9,2.4,22.4
		c1.3,11.7,1.1,63.9-0.2,80.6c-1.1,15.4-2.9,21.7-9.7,36.2C446.3,961.9,445,964,445,961.7L445,961.7z"/>
	
		<path id="path3055" inkscape:export-ydpi="90" inkscape:export-xdpi="90" inkscape:export-filename="C:\Users\Dovile\Desktop\doodles\racer\red.png" inkscape:connector-curvature="0" fill="#800000" stroke="#9B0D28" stroke-width="0.6031" d="
		M469.8,616.2c-2.1-1-6.4-4.2-9.5-7.1c-4.3-4.2-5.6-6-5.3-7.7c0.8-5.3,9.8-1.9,17.2,6.6c4,4.5,4.5,5.8,3.4,8.5
		C474.8,618.5,474.5,618.5,469.8,616.2z"/>
	
		<path id="path3057" inkscape:export-ydpi="90" inkscape:export-xdpi="90" inkscape:export-filename="C:\Users\Dovile\Desktop\doodles\racer\red.png" inkscape:connector-curvature="0" fill="#800000" stroke="#9B0D28" stroke-width="0.6031" d="
		M447.9,570.5c0-9.3,0.5-35.9,1-59.2c1-43.4,0.5-58.7-2.6-77.6c-2.1-13.5-3.9-19.5-9-30.9c-5-11.1-10.3-26.1-9.5-26.9
		c0.8-0.8,10.3,13.4,13.7,20.6c3.5,7.4,8.2,23.3,10.8,36.4c2.4,12.9,2.9,37.2,1.1,59.7c-0.8,10.6-2.1,36-2.6,56.3
		c-0.6,20.4-1.4,37.3-1.9,37.8C448.3,587.1,447.9,581.2,447.9,570.5L447.9,570.5L447.9,570.5z"/>
	
		<path id="path3059" inkscape:export-ydpi="90" inkscape:export-xdpi="90" inkscape:export-filename="C:\Users\Dovile\Desktop\doodles\racer\red.png" inkscape:connector-curvature="0" fill="#800000" stroke="#9B0D28" stroke-width="0.6031" d="
		M159.4,575.9c-0.5-6.4-1.3-19-1.8-28c-0.5-9-1.9-23.7-2.9-32.5c-1.1-8.9-2.3-25.7-2.6-37.5c-0.6-27.4,1-42.2,6.6-59.2
		c3.9-11.6,15.1-36,16.1-35.1c0.3,0.3-2.7,10.6-6.9,22.8c-10.1,30.6-10.6,33.8-10,75.3c0.3,18.2,1,40.7,1.6,50
		c0.6,9.3,1,25.7,0.8,36.4l-0.3,19.5L159.4,575.9L159.4,575.9z"/>
	
		<path id="path3061" inkscape:export-ydpi="90" inkscape:export-xdpi="90" inkscape:export-filename="C:\Users\Dovile\Desktop\doodles\racer\red.png" inkscape:connector-curvature="0" fill="#800000" stroke="#9B0D28" stroke-width="0.6031" d="
		M132.6,615.3c-1.8-3.4,4-10,12.4-14.2c7.2-3.7,11.9,0.6,6.4,5.8c-2.9,2.7-10.9,7.6-15.1,9.2C134,616.9,133.4,616.7,132.6,615.3
		L132.6,615.3z"/>
	
		<path id="path3067" inkscape:export-ydpi="90" inkscape:export-xdpi="90" inkscape:export-filename="C:\Users\Dovile\Desktop\doodles\racer\red.png" inkscape:connector-curvature="0" fill="#333333" stroke="#9B0D28" stroke-width="0.6031" d="
		M188.4,715.2l-3.9-11.1l0.3-45.9c0.2-25.1,0.6-47.1,1-48.9l0.6-3.1l3.9,5.6l3.9,5.6l-0.2,33c-0.2,18.2-0.5,42.6-1,54.4l-0.8,21.4
		L188.4,715.2L188.4,715.2z"/>
	
		<path id="path3069" inkscape:export-ydpi="90" inkscape:export-xdpi="90" inkscape:export-filename="C:\Users\Dovile\Desktop\doodles\racer\red.png" inkscape:connector-curvature="0" fill="#333333" stroke="#9B0D28" stroke-width="0.6031" d="
		M414,678.4c0-48.8,0.2-56,1.4-57.4c0.8-1,2.7-4.5,4.2-8.2l2.7-6.4l0.6,50l0.6,50l-4,12.4c-2.3,6.9-4.5,13-5,13.8
		C414.3,733.4,414,710.1,414,678.4z"/>
	
		<path id="path3071" inkscape:export-ydpi="90" inkscape:export-xdpi="90" inkscape:export-filename="C:\Users\Dovile\Desktop\doodles\racer\red.png" inkscape:connector-curvature="0" fill="#F9DD35" stroke="#9B0D28" stroke-width="0.6031" d="
		M428.5,413.3c-2.9-1.9-11.9-4.8-26.2-8.7c-15.8-4.2-19.8-5.8-21.2-8.7c-2.3-4.2-8.4-41.5-7.2-44.7c0.8-2.6,4.5-2.3,12.7,1
		c16.9,6.8,28,15.4,34.6,27.5c3.4,6.1,9.3,22,10.6,28.6C432.5,411.9,430.7,414.8,428.5,413.3L428.5,413.3z"/>
	
		<path id="path3073" inkscape:export-ydpi="90" inkscape:export-xdpi="90" inkscape:export-filename="C:\Users\Dovile\Desktop\doodles\racer\red.png" inkscape:connector-curvature="0" fill="#F9DD35" stroke="#9B0D28" stroke-width="0.6031" d="
		M174.9,414.8c-2.1-5.5,1.3-20.8,7.2-33.3c7.4-15.1,23.2-28,38.3-31.2c4.5-1,5.8-0.8,7.7,0.3c3.1,1.9,3.4,4.2,1.8,16.1
		c-2.7,22.2-5.3,28.8-13.2,33.3c-3.7,2.1-38.8,16.1-40.5,16.1C175.7,416.2,175.2,415.6,174.9,414.8L174.9,414.8z"/>
	
		<linearGradient id="path3071_2_" gradientUnits="userSpaceOnUse" x1="152.2929" y1="747.2047" x2="174.623" y2="834.277" gradientTransform="matrix(1.6091 0 0 -1.6091 133.1599 1591.6329)">
		<stop  offset="0" style="stop-color:#F6FF6A;stop-opacity:0.6"/>
		<stop  offset="0.8958" style="stop-color:#FFFFFF;stop-opacity:0"/>
	</linearGradient>
	
		<path id="path3071_1_" inkscape:export-ydpi="90" inkscape:export-xdpi="90" inkscape:export-filename="C:\Users\Dovile\Desktop\doodles\racer\red.png" inkscape:connector-curvature="0" fill="url(#path3071_2_)" d="
		M428.5,413.3c-2.9-1.9-11.9-4.8-26.2-8.7c-15.8-4.2-19.8-5.8-21.2-8.7c-1.4-2.7-4.5-19-6.1-31.2c-1-6.9-17.5-125-17.2-126.2
		c0.8-2.6,4.5-2.3,12.7,1c16.9,6.8,76.3,31.5,82.9,43.6c3.4,6.1-22.8,118.6-21.6,125.2C432.5,411.9,430.7,414.8,428.5,413.3
		L428.5,413.3z"/>
	
		<linearGradient id="path3073_2_" gradientUnits="userSpaceOnUse" x1="51.2106" y1="747.8795" x2="37.111" y2="838.1826" gradientTransform="matrix(1.6091 0 0 -1.6091 133.1599 1591.6329)">
		<stop  offset="0" style="stop-color:#F6FF6A;stop-opacity:0.6"/>
		<stop  offset="0.8995" style="stop-color:#FFFFFF;stop-opacity:0"/>
	</linearGradient>
	
		<path id="path3073_1_" inkscape:export-ydpi="90" inkscape:export-xdpi="90" inkscape:export-filename="C:\Users\Dovile\Desktop\doodles\racer\red.png" inkscape:connector-curvature="0" fill="url(#path3073_2_)" d="
		M174.9,414.8c-2.1-5.5-30.9-117.3-24.9-129.9c7.4-15.1,71.4-44.1,86.6-47.3c4.5-1,5.8-0.8,7.7,0.3c3.1,1.9-12.7,116.8-14.3,128.7
		c-2.7,22.2-5.3,28.8-13.2,33.3c-3.7,2.1-38.8,16.1-40.5,16.1C175.7,416.2,175.2,415.6,174.9,414.8L174.9,414.8z"/>
	<g>
		<path opacity="0.5" fill="#FFFFFF" enable-background="new    " d="M311.5,320.5c0,0,0,145.3,0,153.5c6.6-1.8,20.9,5.5,60.5,34.4
			c0-12.7,0-76.9,0-124.1c-5.5-24-9.5-37.5,0-38.9c0-5.3,0-9.3,0-11.4C343.2,321.8,311.5,320.5,311.5,320.5z"/>
	</g>
	<g>
		<path opacity="0.5" fill="#FFFFFF" enable-background="new    " d="M294.9,320.5c0,0,0,145.3,0,153.5c-7.2,4-20.3,7.2-60.5,32.8
			c0-12.7,0-83,0-130.2c4.3-18.3,8.7-26.7,0-32.8c0-5.3,0-10.6,0-12.6C264.7,320.5,294.9,320.5,294.9,320.5z"/>
	</g>
	<g>
		<path opacity="0.5" fill="#FFFFFF" enable-background="new    " d="M313.3,627.8c0,0,0,173,0,181.8c33.5,1.3,60.5,1.4,60.5,1.4
			s0-167.8,0-182.8C356.1,627.3,313.3,627.8,313.3,627.8z"/>
		<path opacity="0.5" fill="#FFFFFF" enable-background="new    " d="M234.6,809.3c0,0,26.9-0.3,60.5,0c0-4.2,0-181.7,0-181.7
			l-60.5,0.6V809.3z"/>
	</g>
	<g>
		<path opacity="0.5" fill="#FFFFFF" enable-background="new    " d="M313.3,988.9v34c24.6,0.2,45.2-3.4,53.4-5.1
			c2.7-0.6,4.7-2.7,5-5.5c1.1-9,2.1-28.8,2.1-30.9C353,990.5,313.3,988.9,313.3,988.9z"/>
		<path opacity="0.5" fill="#FFFFFF" enable-background="new    " d="M242.8,1016.3c7.7,2.3,27.4,6.6,52.3,6.6v-34
			c-28.3,0.8-60.5-4-60.5-4l3.4,26.1C238.4,1013.5,240.4,1015.6,242.8,1016.3z"/>
	</g>
	
		<path id="path3065" inkscape:export-ydpi="90" inkscape:export-xdpi="90" inkscape:export-filename="C:\Users\Dovile\Desktop\doodles\racer\red.png" inkscape:connector-curvature="0" fill="#333333" stroke="#9B0D28" stroke-width="0.6031" d="
		M207.4,614.3c-7.7-1.3-13.2-10.3-16.3-26.7c-1.6-8.7-1.1-14.6,1.6-23c4.5-13.4,14.5-25.6,29.6-36c8.5-6,66.5-40.4,72.2-42.8
		c3.1-1.3,6.6-1.9,11.7-1.9c6.6,0,8.2,0.3,14.8,3.7c17.2,8.7,51.5,36,78,62.1c10.5,10.3,12.1,12.4,13.4,16.6
		c1.9,6.8,3.9,24.6,3.2,30.4c-0.6,7.2-4.3,13.8-9,16.1c-3.7,1.9-6,1.9-99.4,2.1C254.7,615,209.6,614.6,207.4,614.3L207.4,614.3
		L207.4,614.3z"/>
	
		<path id="path3063" inkscape:export-ydpi="90" inkscape:export-xdpi="90" inkscape:export-filename="C:\Users\Dovile\Desktop\doodles\racer\red.png" inkscape:connector-curvature="0" fill="#800000" stroke="#9B0D28" stroke-width="0.6031" d="
		M287.8,973.6c-22-1.9-40.1-5.5-42.5-8.4c-0.6-0.6-2.1-4.7-3.5-9c-5-15.9-8.4-33.5-10.8-56.6c-2.1-20.8-5.8-79.5-5-80.5
		c1-1,149.6-1,152.9,0l2.4,0.6l-1.1,25.1c-2.3,47.6-9.2,105.2-14.5,119.4c-1.8,4.8-4.7,6.4-14,8
		C345.8,973.5,296.7,974.4,287.8,973.6L287.8,973.6L287.8,973.6z"/>
</g>
</svg>
