<?xml version="1.0" encoding="utf-8"?>
<!-- Generator: Adobe Illustrator 17.1.0, SVG Export Plug-In . SVG Version: 6.00 Build 0)  -->
<!DOCTYPE svg PUBLIC "-//W3C//DTD SVG 1.1//EN" "http://www.w3.org/Graphics/SVG/1.1/DTD/svg11.dtd">
<svg version="1.1" id="Layer_1" xmlns="http://www.w3.org/2000/svg" xmlns:xlink="http://www.w3.org/1999/xlink" x="0px" y="0px"
	 viewBox="1403 750.5 600 200.2" enable-background="new 1403 750.5 600 200.2" xml:space="preserve">
<rect x="1403" y="750.5" fill="#357A39" width="600" height="200.2"/>
<g>
	<rect x="1492.9" y="750.5" fill="#4D4D4D" width="416" height="200"/>
	<rect x="1480.6" y="925.5" fill="#C1272D" width="12.5" height="25"/>
	<rect x="1480.6" y="750.5" fill="#E6E6E6" width="12.5" height="25"/>
	<rect x="1480.6" y="775.5" fill="#C1272D" width="12.5" height="25"/>
	<rect x="1480.6" y="800.5" fill="#E6E6E6" width="12.5" height="25"/>
	<rect x="1480.6" y="825.5" fill="#C1272D" width="12.5" height="25"/>
	<rect x="1480.6" y="850.5" fill="#E6E6E6" width="12.5" height="25"/>
	<rect x="1480.6" y="875.5" fill="#C1272D" width="12.5" height="25"/>
	<rect x="1480.6" y="900.5" fill="#E6E6E6" width="12.5" height="25"/>
	<rect x="1908.9" y="750.5" fill="#C1272D" width="12.5" height="25"/>
	<rect x="1908.9" y="925.5" fill="#E6E6E6" width="12.5" height="25"/>
	<rect x="1908.9" y="900.5" fill="#C1272D" width="12.5" height="25"/>
	<rect x="1908.9" y="875.5" fill="#E6E6E6" width="12.5" height="25"/>
	<rect x="1908.9" y="850.5" fill="#C1272D" width="12.5" height="25"/>
	<rect x="1908.9" y="825.5" fill="#E6E6E6" width="12.5" height="25"/>
	<rect x="1908.9" y="800.5" fill="#C1272D" width="12.5" height="25"/>
	<rect x="1908.9" y="775.5" fill="#E6E6E6" width="12.5" height="25"/>
	<rect x="1626.7" y="829" fill="#E6E6E6" width="10.3" height="43"/>
	<rect x="1765" y="829" fill="#E6E6E6" width="10.3" height="43"/>
</g>
</svg>
